<mxfile host="www.draw.io" modified="2023-04-23T15:57:07.775Z" agent="Mozilla/5.0 (Windows NT 10.0; Win64; x64) AppleWebKit/537.36 (KHTML, like Gecko) Chrome/111.0.0.0 Safari/537.36" etag="Xhw5Ub5YpKl7U_7gUvFc" version="21.2.1" type="device">
  <diagram id="C5RBs43oDa-KdzZeNtuy" name="задача1">
    <mxGraphModel dx="954" dy="636" grid="1" gridSize="10" guides="1" tooltips="1" connect="1" arrows="1" fold="1" page="1" pageScale="1" pageWidth="827" pageHeight="1169" math="0" shadow="0">
      <root>
        <mxCell id="WIyWlLk6GJQsqaUBKTNV-0" />
        <mxCell id="WIyWlLk6GJQsqaUBKTNV-1" parent="WIyWlLk6GJQsqaUBKTNV-0" />
        <mxCell id="_RK2EWtneHPLezMLeyEM-6" value="string1 = [ size1]&lt;br&gt;size1 = 8&lt;br&gt;index1 = 0&lt;br&gt;string2 = [size2]&lt;br&gt;size2 = 8&lt;br&gt;index2 = 0" style="rounded=1;whiteSpace=wrap;html=1;fontSize=12;glass=0;strokeWidth=1;shadow=0;fillColor=#ffe6cc;strokeColor=#d79b00;" parent="WIyWlLk6GJQsqaUBKTNV-1" vertex="1">
          <mxGeometry x="85" y="110" width="200" height="90" as="geometry" />
        </mxCell>
        <mxCell id="_RK2EWtneHPLezMLeyEM-7" value="End" style="rounded=1;whiteSpace=wrap;html=1;fontSize=12;glass=0;strokeWidth=1;shadow=0;fillColor=#ffe6cc;strokeColor=#d79b00;" parent="WIyWlLk6GJQsqaUBKTNV-1" vertex="1">
          <mxGeometry x="439" y="295" width="100" height="40" as="geometry" />
        </mxCell>
        <mxCell id="_RK2EWtneHPLezMLeyEM-9" value="Yes" style="edgeStyle=orthogonalEdgeStyle;rounded=0;orthogonalLoop=1;jettySize=auto;html=1;entryX=0.5;entryY=0;entryDx=0;entryDy=0;" parent="WIyWlLk6GJQsqaUBKTNV-1" source="_RK2EWtneHPLezMLeyEM-12" target="_RK2EWtneHPLezMLeyEM-18" edge="1">
          <mxGeometry relative="1" as="geometry">
            <mxPoint x="170" y="445" as="targetPoint" />
          </mxGeometry>
        </mxCell>
        <mxCell id="qndTeGpg98Zbxj-Fqmdq-5" value="No" style="edgeStyle=orthogonalEdgeStyle;rounded=0;orthogonalLoop=1;jettySize=auto;html=1;entryX=0;entryY=0.5;entryDx=0;entryDy=0;" edge="1" parent="WIyWlLk6GJQsqaUBKTNV-1" source="_RK2EWtneHPLezMLeyEM-12" target="_RK2EWtneHPLezMLeyEM-24">
          <mxGeometry relative="1" as="geometry">
            <mxPoint x="285" y="315" as="targetPoint" />
          </mxGeometry>
        </mxCell>
        <mxCell id="_RK2EWtneHPLezMLeyEM-12" value="&lt;span style=&quot;color: rgb(0, 0, 0); font-family: Helvetica; font-size: 12px; font-style: normal; font-variant-ligatures: normal; font-variant-caps: normal; font-weight: 400; letter-spacing: normal; orphans: 2; text-align: center; text-indent: 0px; text-transform: none; widows: 2; word-spacing: 0px; -webkit-text-stroke-width: 0px; text-decoration-thickness: initial; text-decoration-style: initial; text-decoration-color: initial; float: none; display: inline !important;&quot;&gt;index1 &amp;lt; size1&lt;/span&gt;" style="rhombus;whiteSpace=wrap;html=1;fillColor=#e1d5e7;strokeColor=#9673a6;" parent="WIyWlLk6GJQsqaUBKTNV-1" vertex="1">
          <mxGeometry x="125" y="285" width="120" height="60" as="geometry" />
        </mxCell>
        <mxCell id="_RK2EWtneHPLezMLeyEM-17" value="" style="edgeStyle=orthogonalEdgeStyle;rounded=0;orthogonalLoop=1;jettySize=auto;html=1;entryX=0.5;entryY=0;entryDx=0;entryDy=0;exitX=0.5;exitY=1;exitDx=0;exitDy=0;" parent="WIyWlLk6GJQsqaUBKTNV-1" source="_RK2EWtneHPLezMLeyEM-6" target="_RK2EWtneHPLezMLeyEM-12" edge="1">
          <mxGeometry relative="1" as="geometry">
            <mxPoint x="180" y="355" as="sourcePoint" />
            <mxPoint x="180" y="445" as="targetPoint" />
            <Array as="points">
              <mxPoint x="185" y="240" />
              <mxPoint x="185" y="240" />
            </Array>
          </mxGeometry>
        </mxCell>
        <mxCell id="_RK2EWtneHPLezMLeyEM-29" value="Yes" style="edgeStyle=orthogonalEdgeStyle;rounded=0;orthogonalLoop=1;jettySize=auto;html=1;" parent="WIyWlLk6GJQsqaUBKTNV-1" source="_RK2EWtneHPLezMLeyEM-18" target="_RK2EWtneHPLezMLeyEM-28" edge="1">
          <mxGeometry relative="1" as="geometry" />
        </mxCell>
        <mxCell id="_RK2EWtneHPLezMLeyEM-31" value="No" style="edgeStyle=orthogonalEdgeStyle;rounded=0;orthogonalLoop=1;jettySize=auto;html=1;entryX=0.5;entryY=0;entryDx=0;entryDy=0;" parent="WIyWlLk6GJQsqaUBKTNV-1" source="_RK2EWtneHPLezMLeyEM-18" target="_RK2EWtneHPLezMLeyEM-20" edge="1">
          <mxGeometry relative="1" as="geometry">
            <mxPoint x="185" y="495" as="targetPoint" />
          </mxGeometry>
        </mxCell>
        <mxCell id="_RK2EWtneHPLezMLeyEM-18" value="string1 [index1] &amp;lt;= 3 sings" style="rhombus;whiteSpace=wrap;html=1;fillColor=#e1d5e7;strokeColor=#9673a6;" parent="WIyWlLk6GJQsqaUBKTNV-1" vertex="1">
          <mxGeometry x="95" y="395" width="180" height="60" as="geometry" />
        </mxCell>
        <mxCell id="_RK2EWtneHPLezMLeyEM-20" value="index1 += 1" style="rounded=0;whiteSpace=wrap;html=1;labelBackgroundColor=none;fillColor=#dae8fc;strokeColor=#6c8ebf;" parent="WIyWlLk6GJQsqaUBKTNV-1" vertex="1">
          <mxGeometry x="102.5" y="500" width="165" height="60" as="geometry" />
        </mxCell>
        <mxCell id="qndTeGpg98Zbxj-Fqmdq-19" value="" style="edgeStyle=orthogonalEdgeStyle;rounded=0;orthogonalLoop=1;jettySize=auto;html=1;" edge="1" parent="WIyWlLk6GJQsqaUBKTNV-1" source="_RK2EWtneHPLezMLeyEM-24" target="_RK2EWtneHPLezMLeyEM-7">
          <mxGeometry relative="1" as="geometry" />
        </mxCell>
        <mxCell id="_RK2EWtneHPLezMLeyEM-24" value="&lt;span style=&quot;color: rgb(0, 0, 0); font-family: Helvetica; font-size: 12px; font-style: normal; font-variant-ligatures: normal; font-variant-caps: normal; font-weight: 400; letter-spacing: normal; orphans: 2; text-align: center; text-indent: 0px; text-transform: none; widows: 2; word-spacing: 0px; -webkit-text-stroke-width: 0px; background-color: rgb(251, 251, 251); text-decoration-thickness: initial; text-decoration-style: initial; text-decoration-color: initial; float: none; display: inline !important;&quot;&gt;Print: String2 []&lt;/span&gt;" style="shape=parallelogram;perimeter=parallelogramPerimeter;whiteSpace=wrap;html=1;fixedSize=1;fillColor=#d5e8d4;strokeColor=#82b366;" parent="WIyWlLk6GJQsqaUBKTNV-1" vertex="1">
          <mxGeometry x="289" y="285" width="120" height="60" as="geometry" />
        </mxCell>
        <mxCell id="qndTeGpg98Zbxj-Fqmdq-0" style="edgeStyle=orthogonalEdgeStyle;rounded=0;orthogonalLoop=1;jettySize=auto;html=1;exitX=0.5;exitY=1;exitDx=0;exitDy=0;entryX=1;entryY=0.5;entryDx=0;entryDy=0;" edge="1" parent="WIyWlLk6GJQsqaUBKTNV-1" source="_RK2EWtneHPLezMLeyEM-28" target="_RK2EWtneHPLezMLeyEM-20">
          <mxGeometry relative="1" as="geometry" />
        </mxCell>
        <mxCell id="_RK2EWtneHPLezMLeyEM-28" value="string1 [index1] = string2 [index2]&lt;br style=&quot;border-color: var(--border-color);&quot;&gt;index2 += 1" style="rounded=0;whiteSpace=wrap;html=1;labelBackgroundColor=none;fillColor=#dae8fc;strokeColor=#6c8ebf;" parent="WIyWlLk6GJQsqaUBKTNV-1" vertex="1">
          <mxGeometry x="320" y="400" width="180" height="50" as="geometry" />
        </mxCell>
        <mxCell id="_RK2EWtneHPLezMLeyEM-37" style="edgeStyle=orthogonalEdgeStyle;rounded=0;orthogonalLoop=1;jettySize=auto;html=1;entryX=0;entryY=0.5;entryDx=0;entryDy=0;" parent="WIyWlLk6GJQsqaUBKTNV-1" source="_RK2EWtneHPLezMLeyEM-20" target="_RK2EWtneHPLezMLeyEM-12" edge="1">
          <mxGeometry relative="1" as="geometry">
            <Array as="points">
              <mxPoint x="185" y="580" />
              <mxPoint x="60" y="580" />
              <mxPoint x="60" y="315" />
            </Array>
          </mxGeometry>
        </mxCell>
        <mxCell id="BQBerQi_oLMCl0eQbClX-0" value="Написать программу, которая из имеющегося массива строк формирует новый массив из строк, длина которых меньше, либо равна 3 символам. Первоначальный массив можно ввести с клавиатуры, либо задать на старте выполнения алгоритма. При решении не рекомендуется пользоваться коллекциями, лучше обойтись исключительно массивами." style="text;whiteSpace=wrap;html=1;fontSize=16;" parent="WIyWlLk6GJQsqaUBKTNV-1" vertex="1">
          <mxGeometry x="320" y="20" width="440" height="40" as="geometry" />
        </mxCell>
      </root>
    </mxGraphModel>
  </diagram>
</mxfile>
